<svg xmlns="http://www.w3.org/2000/svg" xmlns:xlink="http://www.w3.org/1999/xlink" width="940" zoomAndPan="magnify" viewBox="0 0 705 591.000005" height="788" preserveAspectRatio="xMidYMid meet" version="1.0"><defs><clipPath id="78d3a4a3cc"><path d="M 6.289062 181.796875 L 233 181.796875 L 233 407.890625 L 6.289062 407.890625 Z M 6.289062 181.796875 " clip-rule="nonzero"/></clipPath><clipPath id="26d9264fed"><path d="M 651 260 L 698.867188 260 L 698.867188 330 L 651 330 Z M 651 260 " clip-rule="nonzero"/></clipPath></defs><g clip-path="url(#78d3a4a3cc)"><path fill="#f0281e" d="M 232.75 294.84375 C 232.75 357.277344 182.054688 407.890625 119.519531 407.890625 C 56.984375 407.890625 6.289062 357.277344 6.289062 294.84375 C 6.289062 232.410156 56.984375 181.796875 119.519531 181.796875 C 182.054688 181.796875 232.75 232.410156 232.75 294.84375 " fill-opacity="1" fill-rule="nonzero"/></g><path fill="#ffffff" d="M 90.898438 310.988281 C 86.839844 318.160156 85.097656 321.328125 80.828125 321.328125 C 77.808594 321.328125 74.800781 319.789062 74.800781 314.21875 C 74.800781 308.644531 74.914062 286.023438 74.914062 286.023438 L 57.472656 286.023438 L 57.476562 315.585938 C 57.476562 332.992188 70.28125 338.703125 80.710938 338.703125 C 90.191406 338.703125 96.414062 334.378906 103.070312 322.84375 C 105.9375 317.878906 124.277344 286.027344 124.277344 286.027344 L 105.027344 286.027344 C 105.027344 286.027344 96.46875 301.148438 90.902344 310.992188 " fill-opacity="1" fill-rule="nonzero"/><path fill="#ffffff" d="M 184.96875 338.253906 L 116.351562 338.253906 L 126.234375 320.84375 L 184.96875 320.84375 Z M 184.96875 338.253906 " fill-opacity="1" fill-rule="nonzero"/><path fill="#ffffff" d="M 167.53125 251.207031 L 45.242188 251.207031 C 45.242188 251.207031 45.242188 268.617188 45.242188 268.617188 L 167.53125 268.617188 C 172.355469 268.617188 176.363281 272.390625 176.363281 277.207031 C 176.363281 282.023438 172.355469 286.023438 167.53125 286.023438 C 157.054688 286.023438 145.5625 286.023438 145.5625 286.023438 L 135.449219 303.433594 C 135.449219 303.433594 156.246094 303.433594 167.53125 303.433594 C 182.003906 303.433594 193.800781 291.660156 193.800781 277.207031 C 193.800781 262.757812 182.003906 251.207031 167.53125 251.207031 " fill-opacity="1" fill-rule="nonzero"/><path fill="#f0281e" d="M 275.972656 260.027344 L 296.925781 260.027344 C 303.390625 260.027344 309.363281 261.316406 314.84375 263.890625 C 320.328125 266.464844 324.71875 270.375 328.015625 275.621094 C 331.308594 280.867188 332.957031 287.269531 332.957031 294.828125 C 332.957031 302.390625 331.292969 308.386719 327.964844 313.597656 C 324.636719 318.8125 320.214844 322.753906 314.699219 325.425781 C 309.179688 328.097656 303.160156 329.433594 296.632812 329.433594 L 275.96875 329.433594 L 275.96875 260.027344 Z M 297.320312 317.996094 C 301.429688 317.996094 305.183594 317.070312 308.578125 315.210938 C 311.972656 313.355469 314.664062 310.648438 316.65625 307.097656 C 318.648438 303.546875 319.644531 299.359375 319.644531 294.535156 C 319.644531 289.710938 318.664062 285.558594 316.707031 282.070312 C 314.75 278.585938 312.085938 275.945312 308.726562 274.152344 C 305.363281 272.363281 301.628906 271.464844 297.515625 271.464844 L 288.800781 271.464844 L 288.800781 317.996094 Z M 297.320312 317.996094 " fill-opacity="1" fill-rule="nonzero"/><path fill="#f0281e" d="M 344.996094 326.257812 C 341.832031 323.488281 340.246094 319.855469 340.246094 315.359375 C 340.246094 310.46875 342.15625 306.527344 345.976562 303.53125 C 349.792969 300.53125 355 299.03125 361.59375 299.03125 L 371.382812 299.03125 L 371.382812 296.6875 C 371.382812 293.820312 370.335938 291.554688 368.25 289.894531 C 366.160156 288.234375 363.355469 287.402344 359.828125 287.402344 C 356.953125 287.402344 354.085938 288.035156 351.214844 289.304688 C 348.339844 290.578125 345.988281 291.960938 344.164062 293.460938 L 344.164062 282.121094 C 345.859375 280.625 348.324219 279.253906 351.554688 278.015625 C 354.789062 276.777344 358.230469 276.160156 361.886719 276.160156 C 368.480469 276.160156 373.832031 278.066406 377.945312 281.878906 C 382.054688 285.6875 384.113281 291.117188 384.113281 298.152344 L 384.113281 314.871094 C 384.113281 316.433594 384.535156 317.640625 385.386719 318.488281 C 386.230469 319.335938 387.308594 319.757812 388.617188 319.757812 C 389.074219 319.757812 389.644531 319.660156 390.332031 319.464844 C 391.015625 319.269531 391.65625 319.007812 392.242188 318.683594 L 392.242188 328.261719 C 389.953125 329.695312 387.082031 330.414062 383.625 330.414062 C 380.167969 330.414062 377.636719 329.5 375.644531 327.675781 C 373.652344 325.851562 372.460938 323.539062 372.070312 320.734375 C 371.089844 323.410156 369.214844 325.6875 366.441406 327.578125 C 363.667969 329.464844 360.515625 330.414062 356.992188 330.414062 C 352.160156 330.414062 348.164062 329.027344 345 326.257812 M 355.574219 319.21875 C 356.976562 320.425781 358.722656 321.03125 360.8125 321.03125 C 363.8125 321.03125 366.328125 319.972656 368.351562 317.851562 C 370.375 315.734375 371.386719 312.949219 371.386719 309.492188 L 371.386719 306.851562 L 363.648438 306.851562 C 360.582031 306.851562 358.117188 307.585938 356.257812 309.054688 C 354.394531 310.519531 353.46875 312.394531 353.46875 314.671875 C 353.46875 316.5 354.167969 318.015625 355.574219 319.21875 " fill-opacity="1" fill-rule="nonzero"/><path fill="#f0281e" d="M 400.359375 277.136719 L 412.597656 277.136719 L 412.597656 285.152344 C 412.925781 284.109375 413.675781 282.902344 414.851562 281.535156 C 416.027344 280.164062 417.753906 278.929688 420.039062 277.820312 C 422.324219 276.714844 425.132812 276.160156 428.460938 276.160156 C 434.074219 276.160156 438.5625 277.984375 441.925781 281.632812 C 445.285156 285.285156 446.96875 290.433594 446.96875 297.082031 L 446.96875 329.4375 L 434.144531 329.4375 L 434.144531 299.132812 C 434.144531 295.15625 433.246094 292.09375 431.449219 289.941406 C 429.652344 287.792969 427.253906 286.714844 424.253906 286.714844 C 421.054688 286.714844 418.410156 287.890625 416.324219 290.234375 C 414.234375 292.578125 413.191406 295.613281 413.191406 299.324219 L 413.191406 329.433594 L 400.367188 329.433594 L 400.367188 277.132812 Z M 400.359375 277.136719 " fill-opacity="1" fill-rule="nonzero"/><path fill="#f0281e" d="M 461.050781 277.136719 L 473.386719 277.136719 L 473.386719 285.347656 C 474.171875 283.132812 475.902344 281.042969 478.578125 279.089844 C 481.253906 277.136719 484.648438 276.15625 488.761719 276.15625 C 492.609375 276.15625 495.921875 277.019531 498.699219 278.746094 C 501.472656 280.476562 503.414062 282.804688 504.527344 285.738281 C 506.027344 283 508.214844 280.71875 511.085938 278.894531 C 513.960938 277.070312 517.546875 276.160156 521.859375 276.160156 C 525.316406 276.160156 528.433594 276.976562 531.207031 278.605469 C 533.984375 280.234375 536.167969 282.628906 537.769531 285.789062 C 539.367188 288.949219 540.167969 292.710938 540.167969 297.078125 L 540.167969 329.433594 L 527.4375 329.433594 L 527.4375 298.839844 C 527.4375 294.929688 526.476562 291.929688 524.550781 289.84375 C 522.625 287.761719 520.222656 286.71875 517.355469 286.71875 C 514.484375 286.71875 511.96875 287.859375 510.011719 290.140625 C 508.050781 292.421875 507.074219 295.484375 507.074219 299.328125 L 507.074219 329.4375 L 494.34375 329.4375 L 494.34375 298.839844 C 494.34375 294.867188 493.464844 291.851562 491.699219 289.800781 C 489.9375 287.746094 487.457031 286.71875 484.257812 286.71875 C 481.320312 286.71875 478.859375 287.925781 476.867188 290.335938 C 474.875 292.75 473.878906 295.746094 473.878906 299.332031 L 473.878906 329.4375 L 461.054688 329.4375 L 461.054688 277.140625 Z M 461.050781 277.136719 " fill-opacity="1" fill-rule="nonzero"/><path fill="#f0281e" d="M 555.152344 326.257812 C 551.988281 323.488281 550.40625 319.855469 550.40625 315.359375 C 550.40625 310.46875 552.3125 306.527344 556.132812 303.53125 C 559.949219 300.53125 565.15625 299.03125 571.75 299.03125 L 581.539062 299.03125 L 581.539062 296.6875 C 581.539062 293.820312 580.496094 291.554688 578.40625 289.894531 C 576.320312 288.234375 573.511719 287.402344 569.988281 287.402344 C 567.113281 287.402344 564.242188 288.035156 561.371094 289.304688 C 558.496094 290.578125 556.148438 291.960938 554.320312 293.460938 L 554.320312 282.121094 C 556.019531 280.625 558.480469 279.253906 561.714844 278.015625 C 564.945312 276.777344 568.386719 276.160156 572.042969 276.160156 C 578.636719 276.160156 583.988281 278.066406 588.101562 281.878906 C 592.214844 285.6875 594.269531 291.117188 594.269531 298.152344 L 594.269531 314.871094 C 594.269531 316.433594 594.695312 317.640625 595.542969 318.488281 C 596.390625 319.335938 597.46875 319.757812 598.773438 319.757812 C 599.230469 319.757812 599.804688 319.660156 600.488281 319.464844 C 601.175781 319.269531 601.8125 319.007812 602.398438 318.683594 L 602.398438 328.261719 C 600.113281 329.695312 597.242188 330.414062 593.78125 330.414062 C 590.324219 330.414062 587.792969 329.5 585.804688 327.675781 C 583.8125 325.851562 582.621094 323.539062 582.226562 320.734375 C 581.25 323.410156 579.371094 325.6875 576.597656 327.578125 C 573.824219 329.464844 570.675781 330.414062 567.152344 330.414062 C 562.320312 330.414062 558.320312 329.027344 555.15625 326.257812 M 565.730469 319.21875 C 567.132812 320.425781 568.878906 321.03125 570.96875 321.03125 C 573.96875 321.03125 576.484375 319.972656 578.507812 317.851562 C 580.53125 315.734375 581.542969 312.949219 581.542969 309.492188 L 581.542969 306.851562 L 573.808594 306.851562 C 570.738281 306.851562 568.273438 307.585938 566.414062 309.054688 C 564.554688 310.519531 563.625 312.394531 563.625 314.671875 C 563.625 316.5 564.324219 318.015625 565.730469 319.21875 " fill-opacity="1" fill-rule="nonzero"/><path fill="#f0281e" d="M 610.515625 277.136719 L 622.757812 277.136719 L 622.757812 288.183594 C 623.738281 284.796875 625.515625 281.941406 628.09375 279.628906 C 630.671875 277.316406 634.113281 276.160156 638.421875 276.160156 C 639.660156 276.160156 640.871094 276.320312 642.046875 276.648438 L 642.046875 288.671875 C 640.480469 288.539062 639.140625 288.472656 638.03125 288.472656 C 633.65625 288.472656 630.117188 289.730469 627.40625 292.238281 C 624.699219 294.746094 623.34375 298.3125 623.34375 302.941406 L 623.34375 329.433594 L 610.515625 329.433594 L 610.515625 277.132812 Z M 610.515625 277.136719 " fill-opacity="1" fill-rule="nonzero"/><g clip-path="url(#26d9264fed)"><path fill="#f0281e" d="M 651.28125 260.027344 L 664.105469 260.027344 L 664.105469 298.445312 L 682.414062 277.136719 L 698.179688 277.136719 L 675.367188 302.257812 L 698.867188 329.433594 L 683.101562 329.433594 L 664.105469 305.679688 L 664.105469 329.433594 L 651.28125 329.433594 Z M 651.28125 260.027344 " fill-opacity="1" fill-rule="nonzero"/></g></svg>